<?xml version="1.0" encoding="UTF-8"?><svg xmlns="http://www.w3.org/2000/svg" xmlns:xlink="http://www.w3.org/1999/xlink" version="1.1" id="Layer_1" x="0px" y="0px" viewBox="0 0 24 24" xml:space="preserve"><path fill="#039BE5" d="M22 3H2C.897 3 0 3.897 0 5v14c0 1.103.897 2 2 2h20c1.103 0 2-.897 2-2V5c0-1.103-.897-2-2-2z"/><path opacity="0.2" fill="#FFF" d="M22 3H2C.897 3 0 3.897 0 5v.25c0-1.103.897-2 2-2h20c1.103 0 2 .897 2 2V5c0-1.103-.897-2-2-2z"/><path opacity="0.1" d="M22 20.75H2c-1.103 0-2-.897-2-2V19c0 1.103.897 2 2 2h20c1.103 0 2-.897 2-2v-.25c0 1.103-.897 2-2 2z"/><path fill="#303C42" d="M0 6h24v4H0z"/><path opacity="0.05" fill="#FFF" d="M0 6h24v2H0z"/><circle fill="#FBB03B" cx="18" cy="15" r="3"/><circle fill="#F15A24" cx="15" cy="15" r="3"/><path fill="#F7931E" d="M16.5 12.417c-.892.52-1.5 1.478-1.5 2.583s.608 2.062 1.5 2.583c.892-.52 1.5-1.478 1.5-2.583s-.608-2.062-1.5-2.583z"/><linearGradient id="SVGID_1_" gradientUnits="userSpaceOnUse" x1="-0.7076151" y1="6.0743418" x2="24.7076149" y2="17.9256592"><stop offset="0" stop-color="#FFF" stop-opacity="0.2"/><stop offset="1" stop-color="#FFF" stop-opacity="0"/></linearGradient><path fill="url(#SVGID_1_)" d="M22 3H2C.897 3 0 3.897 0 5v14c0 1.103.897 2 2 2h20c1.103 0 2-.897 2-2V5c0-1.103-.897-2-2-2z"/><metadata><rdf:RDF xmlns:rdf="http://www.w3.org/1999/02/22-rdf-syntax-ns#" xmlns:rdfs="http://www.w3.org/2000/01/rdf-schema#" xmlns:dc="http://purl.org/dc/elements/1.1/"><rdf:Description about="https://iconscout.com/legal#licenses" dc:title="financial,finance,pay,payment,purchase,credit,card,bank" dc:description="financial,finance,pay,payment,purchase,credit,card,bank" dc:publisher="Iconscout" dc:date="2017-10-04" dc:format="image/svg+xml" dc:language="en"><dc:creator><rdf:Bag><rdf:li>Those Icons</rdf:li></rdf:Bag></dc:creator></rdf:Description></rdf:RDF></metadata></svg>