<svg id="SvgjsSvg1022" width="288" height="288" xmlns="http://www.w3.org/2000/svg" version="1.1" xmlns:xlink="http://www.w3.org/1999/xlink" xmlns:svgjs="http://svgjs.com/svgjs"><defs id="SvgjsDefs1023"></defs><g id="SvgjsG1024" transform="matrix(0.9167,0,0,0.9167,11.995200000000011,11.995948205967466)"><svg xmlns="http://www.w3.org/2000/svg" viewBox="0 0 24 24" width="288" height="288"><path fill="#6666ff" d="M23.5 7h-4.109L14.736.217a.5.5 0 0 0-.695-.129l-.824.566a.5.5 0 0 0-.129.696L16.964 7H7.036l3.876-5.65a.5.5 0 0 0-.129-.696L9.96.088a.5.5 0 0 0-.695.129L4.609 7H.5a.5.5 0 0 0-.5.5v1a.5.5 0 0 0 .5.5h.634l3.057 9.606A1.994 1.994 0 0 0 6.097 20h.617a5.497 5.497 0 0 0 10.578 0h.611c.875 0 1.64-.56 1.906-1.394L22.866 9h.634a.5.5 0 0 0 .5-.5v-1a.5.5 0 0 0-.5-.5z" class="colorF47920 svgShape"></path><g fill="#ffffff" class="colorFFF svgShape"><path d="M7.036 7l3.876-5.65a.5.5 0 0 0-.129-.696L9.96.088a.5.5 0 0 0-.695.129L4.609 7h2.427z" opacity=".3" fill="#000000" class="color000 svgShape"></path><path d="M11.882 13.001A5.5 5.5 0 1 0 12.118 24 5.5 5.5 0 0 0 11.882 13zm1.264 7.352L11.5 18.707V15h1v3.293l1.354 1.353-.708.707z" opacity=".2" fill="#000000" class="color000 svgShape"></path><path d="M13.146 20.353L11.5 18.707V15h1v3.293l1.353 1.353z" opacity=".8" fill="#000000" class="color000 svgShape"></path><path d="M16.964 7h2.427L14.736.217a.5.5 0 0 0-.695-.129l-.824.566a.5.5 0 0 0-.129.696L16.964 7z" opacity=".3" fill="#000000" class="color000 svgShape"></path><path d="M23.5 9a.5.5 0 0 0 .5-.5v-1a.5.5 0 0 0-.5-.5H.5a.5.5 0 0 0-.5.5v1a.5.5 0 0 0 .5.5h23z" opacity=".1" fill="#000000" class="color000 svgShape"></path></g></svg></g></svg>