<?xml version="1.0" encoding="UTF-8"?><svg xmlns="http://www.w3.org/2000/svg" xmlns:xlink="http://www.w3.org/1999/xlink" version="1.1" id="Layer_1" x="0px" y="0px" viewBox="0 0 24 24" xml:space="preserve"><path id="base_color_15_" fill="#F47920" d="M23.5 7h-4.109L14.736.217a.5.5 0 0 0-.695-.129l-.824.566a.5.5 0 0 0-.129.696L16.964 7H7.036l3.876-5.65a.5.5 0 0 0-.129-.696L9.96.088a.5.5 0 0 0-.695.129L4.609 7H.5a.5.5 0 0 0-.5.5v1a.5.5 0 0 0 .5.5h.634l3.057 9.606A1.994 1.994 0 0 0 6.097 20h.615c.654 2.307 2.771 4 5.288 4s4.634-1.693 5.288-4h.615c.875 0 1.64-.56 1.906-1.394L22.866 9h.634a.5.5 0 0 0 .5-.5v-1a.5.5 0 0 0-.5-.5z"/><g id="light_foil_14_" fill="#FFF"><path opacity="0.3" d="M7.036 7l3.876-5.65a.5.5 0 0 0-.129-.696L9.96.088a.5.5 0 0 0-.695.129L4.609 7h2.427z"/><path opacity="0.3" d="M16.964 7h2.427L14.736.217a.5.5 0 0 0-.695-.129l-.824.566a.5.5 0 0 0-.129.696L16.964 7z"/><path opacity="0.2" d="M12 13a5.5 5.5 0 1 0 0 11 5.5 5.5 0 0 0 0-11zm-1 8l-1.854-1.854.708-.707L11 19.586l3.146-3.147.708.707L11 21z"/><path opacity="0.8" d="M11 21l-1.854-1.854.708-.707L11 19.586l3.146-3.147.708.707z"/><path opacity="0.1" d="M23.5 9a.5.5 0 0 0 .5-.5v-1a.5.5 0 0 0-.5-.5H.5a.5.5 0 0 0-.5.5v1a.5.5 0 0 0 .5.5h23z"/></g><metadata><rdf:RDF xmlns:rdf="http://www.w3.org/1999/02/22-rdf-syntax-ns#" xmlns:rdfs="http://www.w3.org/2000/01/rdf-schema#" xmlns:dc="http://purl.org/dc/elements/1.1/"><rdf:Description about="https://iconscout.com/legal#licenses" dc:title="shopping,action,basket,shop,buy,check" dc:description="shopping,action,basket,shop,buy,check" dc:publisher="Iconscout" dc:date="2017-10-13" dc:format="image/svg+xml" dc:language="en"><dc:creator><rdf:Bag><rdf:li>Those Icons</rdf:li></rdf:Bag></dc:creator></rdf:Description></rdf:RDF></metadata></svg>